<mxGraphModel dx="1478" dy="1714" grid="1" gridSize="10" guides="1" tooltips="1" connect="1" arrows="1" fold="1" page="0" pageScale="1" pageWidth="827" pageHeight="1169" math="0" shadow="0"><root><mxCell id="0"/><mxCell id="1" parent="0"/><mxCell id="154" value="" style="whiteSpace=wrap;html=1;strokeColor=none;" parent="1" vertex="1"><mxGeometry x="-620" y="-580" width="590" height="1070" as="geometry"/></mxCell><mxCell id="9" value="" style="rounded=0;whiteSpace=wrap;html=1;fillColor=#f8cecc;strokeColor=#b85450;" parent="1" vertex="1"><mxGeometry x="-600" y="-160" width="550" height="260" as="geometry"/></mxCell><mxCell id="10" value="&lt;b&gt;&lt;font color=&quot;#000000&quot; style=&quot;font-size: 18px&quot;&gt;方法区&lt;/font&gt;&lt;/b&gt;" style="text;html=1;align=center;verticalAlign=middle;resizable=0;points=[];autosize=1;strokeColor=none;fontColor=#FF491C;" parent="1" vertex="1"><mxGeometry x="-520" y="-150" width="70" height="20" as="geometry"/></mxCell><mxCell id="155" value="JDK7-方法区使用&lt;br&gt;虚拟内存" style="text;html=1;align=center;verticalAlign=middle;resizable=0;points=[];autosize=1;strokeColor=none;" parent="1" vertex="1"><mxGeometry x="-360" y="-190" width="110" height="30" as="geometry"/></mxCell><mxCell id="156" value="" style="rounded=0;whiteSpace=wrap;html=1;fillColor=#dae8fc;strokeColor=#6c8ebf;" parent="1" vertex="1"><mxGeometry x="-580" y="-120" width="310" height="210" as="geometry"/></mxCell><mxCell id="157" value="类型信息" style="rounded=0;whiteSpace=wrap;html=1;" parent="1" vertex="1"><mxGeometry x="-570" y="-90" width="90" height="50" as="geometry"/></mxCell><mxCell id="158" value="域信息" style="rounded=0;whiteSpace=wrap;html=1;" parent="1" vertex="1"><mxGeometry x="-470" y="-90" width="90" height="50" as="geometry"/></mxCell><mxCell id="159" value="方法信息" style="rounded=0;whiteSpace=wrap;html=1;" parent="1" vertex="1"><mxGeometry x="-370" y="-90" width="90" height="50" as="geometry"/></mxCell><mxCell id="160" value="JIT代码缓存" style="rounded=0;whiteSpace=wrap;html=1;" parent="1" vertex="1"><mxGeometry x="-570" y="-30" width="180" height="50" as="geometry"/></mxCell><mxCell id="161" value="运行时常量池" style="rounded=0;whiteSpace=wrap;html=1;" parent="1" vertex="1"><mxGeometry x="-570" y="30" width="290" height="50" as="geometry"/></mxCell><mxCell id="162" value="&lt;b&gt;&lt;font color=&quot;#000000&quot; style=&quot;font-size: 18px&quot;&gt;堆&lt;/font&gt;&lt;/b&gt;" style="text;html=1;align=center;verticalAlign=middle;resizable=0;points=[];autosize=1;strokeColor=none;fontColor=#FF491C;" parent="1" vertex="1"><mxGeometry x="-150" y="-150" width="30" height="20" as="geometry"/></mxCell><mxCell id="163" value="" style="rounded=0;whiteSpace=wrap;html=1;fillColor=#fff2cc;strokeColor=#d6b656;" parent="1" vertex="1"><mxGeometry x="-210" y="-120" width="150" height="210" as="geometry"/></mxCell><mxCell id="164" value="静态变量" style="rounded=0;whiteSpace=wrap;html=1;" parent="1" vertex="1"><mxGeometry x="-180" y="-90" width="90" height="50" as="geometry"/></mxCell><mxCell id="165" value="字符串常量池" style="rounded=0;whiteSpace=wrap;html=1;" parent="1" vertex="1"><mxGeometry x="-180" y="10" width="90" height="50" as="geometry"/></mxCell><mxCell id="166" value="" style="rounded=0;whiteSpace=wrap;html=1;fillColor=#f8cecc;strokeColor=#b85450;" parent="1" vertex="1"><mxGeometry x="-600" y="170" width="350" height="290" as="geometry"/></mxCell><mxCell id="167" value="&lt;b&gt;&lt;font color=&quot;#000000&quot; style=&quot;font-size: 18px&quot;&gt;方法区&lt;/font&gt;&lt;/b&gt;" style="text;html=1;align=center;verticalAlign=middle;resizable=0;points=[];autosize=1;strokeColor=none;fontColor=#FF491C;" parent="1" vertex="1"><mxGeometry x="-455" y="180" width="70" height="20" as="geometry"/></mxCell><mxCell id="168" value="" style="rounded=0;whiteSpace=wrap;html=1;fillColor=#dae8fc;strokeColor=#6c8ebf;" parent="1" vertex="1"><mxGeometry x="-580" y="210" width="310" height="210" as="geometry"/></mxCell><mxCell id="169" value="类型信息" style="rounded=0;whiteSpace=wrap;html=1;" parent="1" vertex="1"><mxGeometry x="-570" y="240" width="90" height="50" as="geometry"/></mxCell><mxCell id="170" value="域信息" style="rounded=0;whiteSpace=wrap;html=1;" parent="1" vertex="1"><mxGeometry x="-470" y="240" width="90" height="50" as="geometry"/></mxCell><mxCell id="171" value="方法信息" style="rounded=0;whiteSpace=wrap;html=1;" parent="1" vertex="1"><mxGeometry x="-370" y="240" width="90" height="50" as="geometry"/></mxCell><mxCell id="172" value="JIT代码缓存" style="rounded=0;whiteSpace=wrap;html=1;" parent="1" vertex="1"><mxGeometry x="-570" y="300" width="180" height="50" as="geometry"/></mxCell><mxCell id="180" value="" style="rounded=0;whiteSpace=wrap;html=1;fillColor=#f5f5f5;strokeColor=#666666;fontColor=#333333;" parent="1" vertex="1"><mxGeometry x="-220" y="170" width="180" height="290" as="geometry"/></mxCell><mxCell id="173" value="运行时常量池" style="rounded=0;whiteSpace=wrap;html=1;" parent="1" vertex="1"><mxGeometry x="-570" y="360" width="290" height="50" as="geometry"/></mxCell><mxCell id="174" value="&lt;b&gt;&lt;font color=&quot;#000000&quot; style=&quot;font-size: 18px&quot;&gt;堆&lt;/font&gt;&lt;/b&gt;" style="text;html=1;align=center;verticalAlign=middle;resizable=0;points=[];autosize=1;strokeColor=none;fontColor=#FF491C;" parent="1" vertex="1"><mxGeometry x="-150" y="180" width="30" height="20" as="geometry"/></mxCell><mxCell id="175" value="" style="rounded=0;whiteSpace=wrap;html=1;fillColor=#fff2cc;strokeColor=#d6b656;" parent="1" vertex="1"><mxGeometry x="-210" y="210" width="150" height="210" as="geometry"/></mxCell><mxCell id="176" value="静态变量" style="rounded=0;whiteSpace=wrap;html=1;" parent="1" vertex="1"><mxGeometry x="-180" y="240" width="90" height="50" as="geometry"/></mxCell><mxCell id="177" value="字符串常量池" style="rounded=0;whiteSpace=wrap;html=1;" parent="1" vertex="1"><mxGeometry x="-180" y="340" width="90" height="50" as="geometry"/></mxCell><mxCell id="178" value="JDK8-使用的是本地内存" style="text;html=1;align=center;verticalAlign=middle;resizable=0;points=[];autosize=1;strokeColor=none;" parent="1" vertex="1"><mxGeometry x="-370" y="145" width="150" height="20" as="geometry"/></mxCell><mxCell id="179" value="本地内存" style="text;html=1;align=center;verticalAlign=middle;resizable=0;points=[];autosize=1;strokeColor=none;fontSize=16;fontColor=#FF3333;" parent="1" vertex="1"><mxGeometry x="-465" y="430" width="80" height="20" as="geometry"/></mxCell><mxCell id="181" value="" style="rounded=0;whiteSpace=wrap;html=1;fillColor=#f8cecc;strokeColor=#b85450;" parent="1" vertex="1"><mxGeometry x="-600" y="-520" width="550" height="260" as="geometry"/></mxCell><mxCell id="183" value="JDK6及之前" style="text;html=1;align=center;verticalAlign=middle;resizable=0;points=[];autosize=1;strokeColor=none;" parent="1" vertex="1"><mxGeometry x="-345" y="-545" width="80" height="20" as="geometry"/></mxCell><mxCell id="184" value="" style="rounded=0;whiteSpace=wrap;html=1;fillColor=#dae8fc;strokeColor=#6c8ebf;" parent="1" vertex="1"><mxGeometry x="-580" y="-480" width="310" height="210" as="geometry"/></mxCell><mxCell id="189" value="运行时常量池" style="rounded=0;whiteSpace=wrap;html=1;fillColor=#ffe6cc;strokeColor=#d79b00;" parent="1" vertex="1"><mxGeometry x="-530" y="-390" width="250" height="110" as="geometry"/></mxCell><mxCell id="190" value="&lt;b&gt;&lt;font color=&quot;#000000&quot; style=&quot;font-size: 18px&quot;&gt;堆&lt;/font&gt;&lt;/b&gt;" style="text;html=1;align=center;verticalAlign=middle;resizable=0;points=[];autosize=1;strokeColor=none;fontColor=#FF491C;" parent="1" vertex="1"><mxGeometry x="-160" y="-500" width="30" height="20" as="geometry"/></mxCell><mxCell id="193" value="字符串常量池" style="rounded=0;whiteSpace=wrap;html=1;fillColor=#e1d5e7;strokeColor=#9673a6;" parent="1" vertex="1"><mxGeometry x="-370" y="-330" width="90" height="50" as="geometry"/></mxCell><mxCell id="194" value="&lt;b&gt;&lt;font color=&quot;#000000&quot; style=&quot;font-size: 18px&quot;&gt;永久代&lt;/font&gt;&lt;/b&gt;" style="text;html=1;align=center;verticalAlign=middle;resizable=0;points=[];autosize=1;strokeColor=none;fontColor=#FF491C;" parent="1" vertex="1"><mxGeometry x="-485" y="-440" width="70" height="20" as="geometry"/></mxCell></root></mxGraphModel>